<svg xmlns="http://www.w3.org/2000/svg" viewBox="0 0 26.56 26.56"><title>Asset 1</title><path d="M3,16.09H3l0,0s0,0,0,.05a.43.43,0,0,1,0,.07.31.31,0,0,1,0,.08.11.11,0,0,1,0,.05s0,0,0,0a0,0,0,0,1,0,0l-1.33.51h0l1.51,0h0l0,0a.05.05,0,0,1,0,0l0,.08a.36.36,0,0,1,0,.07s0,0,0,.06a0,0,0,0,1,0,0s0,0,0,0l-1.15,1h0l1.33-.5a0,0,0,0,1,0,0s0,0,0,0l0,0a.34.34,0,0,1,0,.08.36.36,0,0,1,0,.07s0,0,0,.06a0,0,0,0,1,0,0h0l-1.46.56a.14.14,0,0,1-.11,0,.11.11,0,0,1-.07-.08L2,18.27a.26.26,0,0,1,0-.11.21.21,0,0,1,0-.08A.16.16,0,0,1,2,18a.27.27,0,0,1,.08-.07l.84-.73H1.71l-.08,0a.12.12,0,0,1,0-.05.16.16,0,0,1,0-.07l-.09-.23a.13.13,0,0,1,0-.06.07.07,0,0,1,0-.05l0,0,.06,0Z" style="fill:#e53e3e"/><path d="M2.11,14.56a.76.76,0,0,1,.3,0,.5.5,0,0,1,.23.09.55.55,0,0,1,.17.2,1,1,0,0,1,.1.3,1.06,1.06,0,0,1,0,.3.63.63,0,0,1-.09.24.52.52,0,0,1-.18.18,1,1,0,0,1-.28.1l-1,.18h0s0,0,0,0a.17.17,0,0,0,0-.05.31.31,0,0,0,0-.08s0-.06,0-.09v-.05s0,0,0,0l0,0,1-.18a.43.43,0,0,0,.17-.06.24.24,0,0,0,.11-.09.31.31,0,0,0,.06-.13.81.81,0,0,0,0-.15.34.34,0,0,0-.05-.14.22.22,0,0,0-.09-.1l-.13,0H2.18l-1,.19h0l0,0,0-.05a.31.31,0,0,0,0-.08s0-.07,0-.09v-.05s0,0,0,0l0,0Z" style="fill:#e53e3e"/><path d="M2.55,13.23h.14a0,0,0,0,1,0,0l0,.8a.12.12,0,0,1,0,.08.12.12,0,0,1-.09,0l-1.58.07H1l0,0a.43.43,0,0,1,0-.05.28.28,0,0,1,0-.09V14A.07.07,0,0,1,1,14a0,0,0,0,1,0,0H1l1.41-.07,0-.55s0,0,0,0l0,0h.11Z" style="fill:#e53e3e"/><path d="M1.15,12.06h.11l0,0v0l0,.44,1.42.06h0l0,0v.06a.19.19,0,0,1,0,.08.31.31,0,0,0,0,.09s0,0,0,0a0,0,0,0,1,0,0h0l-1.41-.06,0,.43a0,0,0,0,1,0,0H1l0,0v0L1,12.11v0l0,0h.11Z" style="fill:#e53e3e"/><path d="M2.79,11.65h0l0,0v.06a.25.25,0,0,1,0,.08s0,.07,0,.09,0,0,0,.05l0,0h0L1.1,11.78h0s0,0,0,0a.07.07,0,0,1,0-.05s0,0,0-.09a.19.19,0,0,1,0-.08.43.43,0,0,1,0,0s0,0,0,0h0Z" style="fill:#e53e3e"/><path d="M2.56,9.13a1.28,1.28,0,0,1,.37.18.77.77,0,0,1,.22.26.83.83,0,0,1,.07.32,1.66,1.66,0,0,1-.08.4l-.12.4s0,.05,0,.06-.05,0-.09,0L1.42,10.3a.1.1,0,0,1-.07-.05.11.11,0,0,1,0-.08l.13-.43a1.21,1.21,0,0,1,.17-.36.71.71,0,0,1,.24-.22.61.61,0,0,1,.3-.08A1,1,0,0,1,2.56,9.13Zm-.1.36a.62.62,0,0,0-.23,0,.34.34,0,0,0-.2,0,.52.52,0,0,0-.17.12.67.67,0,0,0-.12.24L1.69,10l1.14.36,0-.18a.81.81,0,0,0,0-.25.6.6,0,0,0-.06-.19.54.54,0,0,0-.15-.15A.82.82,0,0,0,2.46,9.49Z" style="fill:#e53e3e"/><path d="M3.61,8.89l0,0s0,0,0,0a.11.11,0,0,1,0,.05.16.16,0,0,1,0,.08.2.2,0,0,1,0,.08l0,0s0,0,0,0h0L2,8.56h0v0a.11.11,0,0,1,0,0,.16.16,0,0,1,0-.08A.59.59,0,0,1,2,8.3l0-.05,0,0h0Z" style="fill:#e53e3e"/><path d="M4.75,6.88a0,0,0,0,1,0,0v0a.17.17,0,0,1,0,.05l0,.07a.43.43,0,0,1,0,.07l0,0h0L3.36,6.42h0L4.31,7.6l0,0a.06.06,0,0,1,0,0l0,0,0,.07,0,.06s0,0,0,0l0,0h0L2.65,7.59h0l1.21.74,0,0v0l0,0,0,.07a.43.43,0,0,1,0,.07l0,0,0,0h0L2.35,7.81a.28.28,0,0,1-.07-.09.18.18,0,0,1,0-.1l.13-.2a.35.35,0,0,1,.06-.09l.07,0a.11.11,0,0,1,.08,0l.1,0,1.09.22h0l-.68-.88a.24.24,0,0,1-.06-.09.11.11,0,0,1,0-.07.22.22,0,0,1,0-.08l0-.08.13-.2a.1.1,0,0,1,0-.05l0,0h.06l0,0Z" style="fill:#e53e3e"/><path d="M5.55,5.86l0,0s0,0,0,0a0,0,0,0,1,0,0V6L5,6.65a.08.08,0,0,1-.07,0s0,0-.08,0l-1.16-1a.1.1,0,0,1,0-.08.09.09,0,0,1,0-.07l.57-.66,0,0h0l0,0,0,0,.05,0s0,0,0,0a0,0,0,0,1,0,0V5l-.41.47.33.28.34-.4h0l0,0,.05,0s0,0,0,.05l0,0a0,0,0,0,1,0,0v0L4.62,6,5,6.28l.41-.47,0,0h0l0,0Z" style="fill:#e53e3e"/><path d="M6.78,4.76l0,0s0,0,0,.05a.09.09,0,0,1,0,0s0,0,0,0l-.11.1-.07,0-.07,0H6.42l-.11,0-.87-.33-.16-.06-.17-.08h0l.14.14.13.15.6.69v0s0,0,0,0l0,0-.06,0-.06,0,0,0h0l0,0-1-1.18a.13.13,0,0,1,0-.1.1.1,0,0,1,0-.08l.14-.13.07,0,.07,0h.07l.1,0,.68.26.12,0,.12,0,.11.05.11,0h0l-.14-.14c0-.06-.09-.1-.13-.15L5.5,3.79v0a.08.08,0,0,1,0,0l0,0,.06,0,.06-.05,0,0h0s0,0,0,0Z" style="fill:#e53e3e"/><path d="M7.67,3.69a.61.61,0,0,1,.09.23.58.58,0,0,1,0,.23.66.66,0,0,1-.11.2,1.12,1.12,0,0,1-.2.17l-.14.08-.14,0L7,4.66H7l0,0,0-.08a.21.21,0,0,1,0-.06l0,0v0l0,0H7l.14,0a.48.48,0,0,0,.16-.08l.09-.07a.41.41,0,0,0,0-.09.27.27,0,0,0,0-.09.11.11,0,0,0,0-.08.13.13,0,0,0-.09-.07l-.11,0H7.06l-.15,0H6.75a.39.39,0,0,1-.15,0,.35.35,0,0,1-.14-.06.44.44,0,0,1-.13-.14.48.48,0,0,1-.09-.21.5.5,0,0,1,0-.21.58.58,0,0,1,.11-.18.86.86,0,0,1,.17-.15l.11-.06.11,0,.1,0s0,0,.06,0H7s0,0,0,0l0,0,0,.05,0,.06s0,0,0,0V3l0,0H6.93l-.11,0a.34.34,0,0,0-.12.06.29.29,0,0,0-.08.07.25.25,0,0,0,0,.07.11.11,0,0,0,0,.08.13.13,0,0,0,0,.07.12.12,0,0,0,.08.06l.11,0,.14,0,.15,0h.15a.43.43,0,0,1,.16,0,.61.61,0,0,1,.14.07A.53.53,0,0,1,7.67,3.69Z" style="fill:#e53e3e"/><path d="M8.42,3.84a0,0,0,0,1,0,0s0,0,0,0,0,0,0,0L8.29,4,8.21,4,8.16,4h0l0,0L7.32,2.55v0l0,0,0,0,.07,0,.08,0,0,0h0l0,0Z" style="fill:#e53e3e"/><path d="M9.82,2.32a1.48,1.48,0,0,1,.09.38.88.88,0,0,1,0,.33.8.8,0,0,1-.18.27.91.91,0,0,1-.32.19A1,1,0,0,1,9,3.58a.77.77,0,0,1-.3-.06.73.73,0,0,1-.24-.2A1.35,1.35,0,0,1,8.29,3a1.08,1.08,0,0,1-.1-.37.88.88,0,0,1,.05-.33A.65.65,0,0,1,8.41,2a1,1,0,0,1,.32-.19,1,1,0,0,1,.35-.08.56.56,0,0,1,.29.05.6.6,0,0,1,.25.2A1.62,1.62,0,0,1,9.82,2.32Zm-.35.16a1.23,1.23,0,0,0-.11-.23.67.67,0,0,0-.14-.15A.36.36,0,0,0,9.05,2a.6.6,0,0,0-.22,0,.53.53,0,0,0-.19.13.37.37,0,0,0-.08.18.67.67,0,0,0,0,.2,1,1,0,0,0,.07.23A1.23,1.23,0,0,0,8.74,3a.41.41,0,0,0,.14.15.36.36,0,0,0,.18.07.59.59,0,0,0,.21,0,.4.4,0,0,0,.19-.13.38.38,0,0,0,.08-.17.37.37,0,0,0,0-.21A.62.62,0,0,0,9.47,2.48Z" style="fill:#e53e3e"/><path d="M11.7,2.68v.06s0,0,0,0l0,0,0,0-.15,0h-.08l-.07,0a.13.13,0,0,1-.07-.06.75.75,0,0,1-.09-.09L10.54,2l-.11-.14-.1-.14h0c0,.06,0,.12.05.19s0,.12,0,.19l.2.9V3l0,0,0,0-.08,0h-.15l0,0L10,1.52a.11.11,0,0,1,0-.1.19.19,0,0,1,.09,0l.18,0h.09l.07,0,.06,0,.07.08L11,2l.08.1.08.1a.86.86,0,0,1,.07.1l.08.09h0c0-.06,0-.13-.05-.19a1.62,1.62,0,0,1,0-.19l-.18-.81v0s0,0,0,0l0,0,.08,0h.15a0,0,0,0,1,0,0Z" style="fill:#e53e3e"/><path d="M13.38,2.56a.25.25,0,0,1,0,.07.09.09,0,0,1,0,.05l-.05,0h-.27l0,0s0,0,0,0l-.14-.34-.66,0-.09.35s0,0,0,0l0,0a.08.08,0,0,1-.06,0h-.19l0,0s0,0,0,0a.31.31,0,0,1,0-.08l.44-1.58s0,0,0,0l0,0h.3a.16.16,0,0,1,.07,0s0,0,0,0l0,0Zm-.89-1.24h0l-.2.76.5,0Z" style="fill:#e53e3e"/><path d="M14.5,2.62a.15.15,0,0,1,0,.07s0,0,0,0l0,0h0l-.81,0a.09.09,0,0,1-.07,0,.09.09,0,0,1,0-.09L13.63,1a0,0,0,0,1,0,0l0,0h.23l0,0s0,0,0,0,0,0,0,0L13.9,2.44l.55,0h0s0,0,0,0,0,0,0,0Z" style="fill:#e53e3e"/><path d="M16.46,3.13s0,0,0,0,0,0,0,0h-.06l-.1,0-.09,0-.05,0,0,0a0,0,0,0,1,0,0L16,2.62l0-.13a.3.3,0,0,0,0-.1.19.19,0,0,0-.06-.07l-.09,0-.11,0-.16.65v0h-.09l-.08,0-.09,0,0,0,0,0v0l.37-1.54a.12.12,0,0,1,0-.08.11.11,0,0,1,.08,0l.44.11.11,0,.08,0a1,1,0,0,1,.17.1.46.46,0,0,1,.12.12.3.3,0,0,1,.05.16.41.41,0,0,1,0,.19.47.47,0,0,1-.06.15.48.48,0,0,1-.09.11l-.13.07a.41.41,0,0,1-.16,0l.06.06a.35.35,0,0,1,0,.08.42.42,0,0,1,0,.1.5.5,0,0,1,0,.12l.07.37v.12Zm-.17-1.26a.19.19,0,0,0,0-.15.21.21,0,0,0-.11-.12l-.05,0-.09,0-.16,0L15.76,2l.18,0a.3.3,0,0,0,.13,0l.11,0A.23.23,0,0,0,16.25,2,.15.15,0,0,0,16.29,1.87Z" style="fill:#e53e3e"/><path d="M17.6,3.47l0,.06s0,0,0,0l0,0h0l-.82-.31a.1.1,0,0,1-.06,0,.09.09,0,0,1,0-.1l.54-1.42a.09.09,0,0,1,.06-.07h.08l.82.31h0a0,0,0,0,1,0,0V2a.08.08,0,0,0,0,.06l0,.06s0,0,0,0a0,0,0,0,1,0,0h0L17.43,2l-.15.4.5.19a0,0,0,0,1,0,0,0,0,0,0,1,0,0v0s0,0,0,.06a.16.16,0,0,1,0,.06s0,0,0,0h-.05l-.5-.19L17,3.1l.59.22h0v.08S17.61,3.44,17.6,3.47Z" style="fill:#e53e3e"/><path d="M18.89,3.7a.58.58,0,0,1-.15.19.4.4,0,0,1-.21.09.88.88,0,0,1-.23,0,1.17,1.17,0,0,1-.24-.09.42.42,0,0,1-.14-.09l-.11-.09a.47.47,0,0,1-.06-.09.21.21,0,0,1,0-.06.13.13,0,0,1,0-.06.16.16,0,0,1,0-.08l0-.07,0,0s0,0,0,0h0s0,0,0,0a.7.7,0,0,1,.06.09l.09.1a.56.56,0,0,0,.15.1l.11,0h.09a.18.18,0,0,0,.09,0l.06-.07a.21.21,0,0,0,0-.11.21.21,0,0,0,0-.1.41.41,0,0,0-.07-.11l-.1-.12A.57.57,0,0,1,18.27,3a.35.35,0,0,1-.06-.14.29.29,0,0,1,0-.16.41.41,0,0,1,.05-.18.45.45,0,0,1,.15-.18.42.42,0,0,1,.18-.08h.21a1,1,0,0,1,.22.08l.1.07.1.07s.05,0,.06.08l0,0v.06s0,0,0,0l0,0,0,.06,0,0,0,0h0l0,0a.56.56,0,0,1-.05-.08L19,2.67a.36.36,0,0,0-.12-.08l-.09,0h-.08a.09.09,0,0,0-.07,0l-.05.06a.18.18,0,0,0,0,.1.49.49,0,0,0,0,.11l.08.11.1.12.09.13.06.14a.43.43,0,0,1,0,.16A.32.32,0,0,1,18.89,3.7Z" style="fill:#e53e3e"/><path d="M20.59,4.41a1.54,1.54,0,0,1-.27.29.81.81,0,0,1-.3.14.58.58,0,0,1-.32,0,1.13,1.13,0,0,1-.6-.41A.61.61,0,0,1,19,4.15a.72.72,0,0,1,0-.32,1.35,1.35,0,0,1,.19-.35,1.18,1.18,0,0,1,.26-.28,1.05,1.05,0,0,1,.3-.15.74.74,0,0,1,.33,0,1,1,0,0,1,.33.16,1.25,1.25,0,0,1,.26.25.57.57,0,0,1,.11.28.84.84,0,0,1,0,.31A1.35,1.35,0,0,1,20.59,4.41Zm-.32-.2A.85.85,0,0,0,20.4,4a.46.46,0,0,0,.05-.2.3.3,0,0,0,0-.18.45.45,0,0,0-.15-.16.48.48,0,0,0-.21-.09.42.42,0,0,0-.19,0,.45.45,0,0,0-.17.11.93.93,0,0,0-.16.18,1.79,1.79,0,0,0-.13.22.53.53,0,0,0,0,.2.31.31,0,0,0,0,.19.55.55,0,0,0,.15.16.37.37,0,0,0,.21.08.4.4,0,0,0,.19,0l.18-.12A1.43,1.43,0,0,0,20.27,4.21Z" style="fill:#e53e3e"/><path d="M21.65,5.78a.89.89,0,0,1-.24.17.54.54,0,0,1-.25.06.59.59,0,0,1-.25-.07.87.87,0,0,1-.26-.18.94.94,0,0,1-.18-.24.55.55,0,0,1-.07-.24A.43.43,0,0,1,20.45,5a.71.71,0,0,1,.17-.24L21.36,4l0,0h0l0,0,.06.06.06.06,0,0a0,0,0,0,1,0,0s0,0,0,0L20.89,5a.72.72,0,0,0-.11.15.39.39,0,0,0,0,.14.35.35,0,0,0,0,.14.47.47,0,0,0,.09.12l.12.09a.38.38,0,0,0,.27,0l.13-.1.74-.76h.06l0,0a.33.33,0,0,1,.06.06l.06.06,0,0s0,0,0,0l0,0Z" style="fill:#e53e3e"/><path d="M22.18,7.46h-.05l-.05,0L22,7.34s0-.06-.06-.08,0,0,0,0V7.15l.22-.36.06-.11a.23.23,0,0,0,0-.11.14.14,0,0,0,0-.09.2.2,0,0,0-.05-.09l-.06-.09-.54.41h-.05l0,0-.05-.06-.05-.07,0,0a.08.08,0,0,1,0,0l0,0,1.27-1a.16.16,0,0,1,.09,0l.06.05.28.36a.35.35,0,0,0,.06.09l0,.07a.91.91,0,0,1,.08.18.56.56,0,0,1,0,.18.47.47,0,0,1-.06.15.43.43,0,0,1-.13.14L23,6.73a.34.34,0,0,1-.14,0,.32.32,0,0,1-.14,0,.55.55,0,0,1-.15-.08.41.41,0,0,1,0,.18.42.42,0,0,1,0,.1.54.54,0,0,1,0,.11l-.19.33-.05.06S22.19,7.46,22.18,7.46Zm.67-1.08a.24.24,0,0,0,.09-.12.18.18,0,0,0,0-.16l0,0L22.85,6l-.09-.13-.4.3.11.15.09.09.1,0h.1A.18.18,0,0,0,22.85,6.38Z" style="fill:#e53e3e"/><path d="M23,8.53l-.06,0h-.1l-.06,0-.1-.07-.1-.1-.09-.14a1.1,1.1,0,0,1-.12-.31.73.73,0,0,1,0-.3.63.63,0,0,1,.16-.27,1.11,1.11,0,0,1,.31-.24A1.21,1.21,0,0,1,23.28,7a.65.65,0,0,1,.34,0,.79.79,0,0,1,.28.13,1.12,1.12,0,0,1,.22.26.69.69,0,0,1,.05.13.56.56,0,0,1,0,.12.49.49,0,0,1,0,.12s0,.06,0,.07,0,0,0,0l0,0,0,0-.05,0L24,8h-.1s0,0,0-.06V7.8a.62.62,0,0,0,0-.13.77.77,0,0,0-.06-.15.29.29,0,0,0-.13-.14.49.49,0,0,0-.17-.06.5.5,0,0,0-.21,0,1,1,0,0,0-.24.1.72.72,0,0,0-.21.16.38.38,0,0,0-.12.17.47.47,0,0,0,0,.17.56.56,0,0,0,.07.19.64.64,0,0,0,.1.13l.1.08.08,0,0,0a0,0,0,0,1,0,0,0,0,0,0,0,0,0l0,0Z" style="fill:#e53e3e"/><path d="M23.38,9.7l-.06,0h-.07s0,0,0,0l-.33-.81a.11.11,0,0,1,0-.08A.11.11,0,0,1,23,8.75l1.41-.58a.1.1,0,0,1,.09,0,.09.09,0,0,1,.06.06l.33.81s0,0,0,0a0,0,0,0,1,0,0l0,0-.06,0-.06,0h-.09l-.24-.58L24,8.72l.2.49s0,0,0,0a0,0,0,0,1,0,0l0,0-.05,0-.07,0h-.07v0l-.2-.48L23.25,9l.24.59a0,0,0,0,1,0,0,0,0,0,0,1,0,0l0,0Z" style="fill:#e53e3e"/><path d="M24,11.63h-.16l-.05-.05-.07-.09-.06-.13a.84.84,0,0,1-.05-.17.92.92,0,0,1,0-.33.81.81,0,0,1,.11-.27.83.83,0,0,1,.24-.21,1.14,1.14,0,0,1,.37-.14,1.09,1.09,0,0,1,.4,0,.86.86,0,0,1,.32.1.63.63,0,0,1,.22.21.94.94,0,0,1,.15.45v.13l0,.11a.15.15,0,0,1,0,.07s0,0,0,0l0,0,0,0h-.06l-.07,0H25a0,0,0,0,0,0,0,.13.13,0,0,1,0-.06.19.19,0,0,0,0-.09l0-.13a.5.5,0,0,0,0-.16.3.3,0,0,0-.08-.17.33.33,0,0,0-.15-.11.42.42,0,0,0-.2-.05l-.26,0-.25.09a.53.53,0,0,0-.16.13.35.35,0,0,0-.08.16.61.61,0,0,0,0,.19.91.91,0,0,0,.06.16l.07.1.07.07a.09.09,0,0,1,0,.05v0l0,0,0,0Z" style="fill:#e53e3e"/><path d="M24,12.87h-.11l0,0v0L23.77,12a.08.08,0,0,1,0-.08s0,0,.08,0l1.52-.14.09,0a.11.11,0,0,1,0,.08l.08.87v0l0,0h-.21l0,0v0l0-.62-.43,0,.05.53v0l0,0h-.21l0,0v0l-.05-.53-.49,0,.05.62v0l0,0H24Z" style="fill:#e53e3e"/><path d="M23.92,14.52l-.06,0,0,0,0,0v-.21a.22.22,0,0,1,0-.08l0-.06s0,0,.07-.05L24,14l.84-.39.16-.07.17-.07h-.4l-.91,0h0a0,0,0,0,1,0,0s0,0,0,0v-.09a.15.15,0,0,1,0-.07.07.07,0,0,1,0-.05s0,0,0,0h0l1.58.07a.13.13,0,0,1,.09,0,.12.12,0,0,1,0,.09v.19s0,.06,0,.09l0,.06-.05.05-.1,0-.65.31-.12.06-.11.05-.12,0-.11,0h.4l.82,0h0l0,0a.07.07,0,0,1,0,0v.08a.22.22,0,0,1,0,.08s0,0,0,0l0,0h0Z" style="fill:#e53e3e"/><path d="M25.11,16.2h-.06l0,0,0,0v0l.08-.43-1.39-.26h0a0,0,0,0,1,0,0v-.06a.25.25,0,0,1,0-.08.64.64,0,0,1,0-.09s0,0,0-.05l0,0h0l1.39.26.08-.43s0,0,0,0h0s0,0,0,0h.14l0,0,0,0s0,0,0,0l-.22,1.22v0h-.15Z" style="fill:#e53e3e"/><path d="M23.31,17.05l-.06,0,0,0a0,0,0,0,1,0,0s0,0,0,0l.26-.84a.1.1,0,0,1,.05-.06s0,0,.09,0l1.46.47a.1.1,0,0,1,.07.05.11.11,0,0,1,0,.08l-.26.83,0,0s0,0,0,0h0l-.06,0-.06,0,0,0,0,0v0l.19-.6-.41-.13-.16.51s0,0,0,0h-.13l-.06,0,0,0s0,0,0,0v0l.16-.51-.47-.15-.19.6a0,0,0,0,1,0,0h-.07Z" style="fill:#e53e3e"/><path d="M22.6,18.39h0v0a.17.17,0,0,1,0-.05.69.69,0,0,1,0-.1.29.29,0,0,1,0-.08l0-.05h0a0,0,0,0,1,0,0l.42,0h.13l.11,0,.08-.05a.22.22,0,0,0,0-.08l.05-.1L23,17.54s0,0,0,0,0,0,0,0a.17.17,0,0,1,0-.05.16.16,0,0,1,0-.08.59.59,0,0,1,0-.08l0,0,0,0h0l1.44.67s.06,0,.06.07a.11.11,0,0,1,0,.08l-.2.41a.93.93,0,0,1-.05.1.16.16,0,0,1,0,.07l-.12.15-.15.09a.47.47,0,0,1-.17,0l-.18-.05-.13-.09a.34.34,0,0,1-.09-.12.58.58,0,0,1-.05-.14v-.16a.18.18,0,0,1-.07.05.14.14,0,0,1-.09,0l-.1,0H22.6Zm1.28.09a.26.26,0,0,0,.15,0,.23.23,0,0,0,.13-.08l0-.05,0-.09.06-.14-.45-.21-.07.16a.24.24,0,0,0,0,.13.2.2,0,0,0,0,.11.41.41,0,0,0,.05.09Z" style="fill:#e53e3e"/><path d="M9,24.82a0,0,0,0,1,0,0s0,0,0,0h0l-.08,0-.07,0,0,0,0,0a0,0,0,0,1,0,0l.6-1.29h0L8.22,24.46l0,0H8.1l-.07,0L8,24.4l0,0s0,0,0,0,0,0,0,0l.16-1.5h0L7.44,24.1l0,0H7.34l-.08,0-.07,0,0,0,0,0v0l.67-1.41s0-.07.08-.08a.12.12,0,0,1,.1,0l.21.1.09.05a.13.13,0,0,1,.06.07.19.19,0,0,1,0,.08v.1L8.25,24h0l.8-.78.07-.07.07,0h.08l.08,0,.22.1a.1.1,0,0,1,.05,0,.05.05,0,0,1,0,0,0,0,0,0,1,0,.05.13.13,0,0,1,0,.06Z" style="fill:#e53e3e"/><path d="M10.73,25.31a0,0,0,0,1,0,0h0s0,0-.06,0l-.1,0-.09,0,0,0,0,0v0l0-.42a.51.51,0,0,0,0-.13l0-.1-.06-.07-.1,0-.1,0-.18.64a0,0,0,0,1,0,0H9.72l-.09,0-.08,0L9.5,25s0,0,0,0,0,0,0,0l.42-1.54s0-.06,0-.07a.11.11,0,0,1,.08,0l.43.12.11,0,.08,0a.69.69,0,0,1,.17.1.33.33,0,0,1,.11.13.3.3,0,0,1,.05.16.55.55,0,0,1,0,.18.52.52,0,0,1-.07.15.36.36,0,0,1-.1.11.47.47,0,0,1-.12.07l-.16,0s0,0,.06.06a.59.59,0,0,1,0,.08.17.17,0,0,1,0,.1l0,.12.05.37v.12ZM10.6,24a.2.2,0,0,0,0-.15.21.21,0,0,0-.1-.11l-.06,0-.09,0-.15,0-.13.48.17.05a.3.3,0,0,0,.13,0l.11,0,.08-.06A.3.3,0,0,0,10.6,24Z" style="fill:#e53e3e"/><path d="M12.29,25.31s0,.05,0,.06,0,0,0,0,0,0,0,0l0,0-.06,0-.11,0-.14,0h-.18a.94.94,0,0,1-.31-.1.61.61,0,0,1-.22-.2.69.69,0,0,1-.12-.29,1.27,1.27,0,0,1,0-.39,1.38,1.38,0,0,1,.11-.39.69.69,0,0,1,.21-.26.72.72,0,0,1,.27-.15,1,1,0,0,1,.34,0,.35.35,0,0,1,.14,0l.12,0,.09.06.06.05,0,0s0,0,0,0v0a.13.13,0,0,1,0,.06s0,.05,0,.07a.08.08,0,0,1,0,.05s0,0,0,0,0,0,0,0l-.05,0-.07-.06a.52.52,0,0,0-.11-.07l-.16,0a.41.41,0,0,0-.19,0,.39.39,0,0,0-.15.11.42.42,0,0,0-.11.17,1.82,1.82,0,0,0-.07.25,1.22,1.22,0,0,0,0,.27.59.59,0,0,0,.06.2.37.37,0,0,0,.13.12.28.28,0,0,0,.18.06.43.43,0,0,0,.16,0,.28.28,0,0,0,.13,0l.09,0a.06.06,0,0,1,0,0h0a0,0,0,0,1,0,0v0A.2.2,0,0,1,12.29,25.31Z" style="fill:#e53e3e"/><path d="M14.78,25.41v.05l0,0s0,0,0,0h-.29l-.06,0-.06-.07-.07-.1-.49-.79s-.05-.1-.08-.16l-.09-.16h0a1.36,1.36,0,0,1,0,.2c0,.06,0,.13,0,.2l.06.91v0l0,0h-.29v0L13.25,24a.1.1,0,0,1,0-.1.19.19,0,0,1,.09,0h.27l.07,0,0,.05a.7.7,0,0,1,.06.09l.38.62.07.11.06.11.06.1.06.11h0c0-.06,0-.13,0-.2s0-.13,0-.19l-.05-.83a0,0,0,0,1,0,0s0,0,0,0l0,0h.21l0,0v0Z" style="fill:#e53e3e"/><path d="M16.28,25.1s0,0,0,.07v0l0,0s0,0,0,0l-.86.18h-.08a.16.16,0,0,1-.05-.08l-.3-1.5s0-.07,0-.09l.07,0,.86-.17h0l0,0,0,0s0,0,0,.06a.2.2,0,0,1,0,.07,0,0,0,0,1,0,0,0,0,0,0,1,0,0h0l-.61.12.08.42.52-.1h0l0,0s0,0,0,0,0,0,0,.06a.18.18,0,0,1,0,.06v.07h0l-.52.11.1.48L16.2,25h0s0,0,0,0l0,0S16.27,25.08,16.28,25.1Z" style="fill:#e53e3e"/><path d="M17.46,23.59a.82.82,0,0,1,0,.26.52.52,0,0,1-.07.22.7.7,0,0,1-.16.19,1.46,1.46,0,0,1-.28.13l-.14.05L17,25s0,0,0,0,0,0,0,0l-.05,0-.08,0-.08,0h-.09s0,0,0,0l-.51-1.49a.17.17,0,0,1,0-.1.13.13,0,0,1,.07-.06l.4-.13.11,0,.13,0h.17a.49.49,0,0,1,.17.06.69.69,0,0,1,.13.11A.51.51,0,0,1,17.46,23.59Zm-.35.14A.24.24,0,0,0,17,23.6a.21.21,0,0,0-.1-.06h-.11l-.1,0-.14,0,.19.57.15-.05.13-.07.07-.09a.43.43,0,0,0,0-.11A.31.31,0,0,0,17.11,23.73Z" style="fill:#e53e3e"/><path d="M19.27,23.93a.13.13,0,0,1,.05.06,0,0,0,0,1,0,0l0,0-.09.05-.1,0-.05,0h0l0,0-.26-.27-.59.29.05.35v0l0,0-.05,0-.08.05-.09,0H17.9l0,0a.17.17,0,0,1,0-.08L17.67,23v0a.08.08,0,0,1,0,0l.06,0a.3.3,0,0,1,.1-.05l.11-.06.07,0h0l0,0ZM18,23.12h0l.1.78.45-.22Z" style="fill:#e53e3e"/><path d="M20.35,23.21s0,0,0,.06a.08.08,0,0,1,0,0v0a0,0,0,0,1,0,0l-.67.44-.08,0a.19.19,0,0,1-.07-.06l-.86-1.34s0,0,0,0l0,0s0,0,0,0,0,0,.07,0l.07-.05.05,0h0l0,0,.76,1.18.46-.3h.06l0,0Z" style="fill:#e53e3e"/><circle cx="13.28" cy="13.28" r="13.11" style="fill:none;stroke:#e53e3e;stroke-miterlimit:10;stroke-width:0.34047567389941635px"/><path d="M23,13.28a9.66,9.66,0,0,1-2.6,6.6,15,15,0,0,0-10-3.41,17.1,17.1,0,0,0-5.9,1,9.57,9.57,0,0,1-1-4.21,9.71,9.71,0,0,1,19.42,0Z" style="fill:#006634"/><path d="M20.14,20.15a9.7,9.7,0,0,1-14.06-.36,16.75,16.75,0,0,1,6.65-1.32A16.41,16.41,0,0,1,20.14,20.15Z" style="fill:#f7c214"/><path d="M21.47,9l-.13.06c-.14,0-.26-.17-.4,0l-.15.08c-.13,0-.22,0-.19.09s0,.07-.14.05,0,0,0-.1c-.22,0-.22,0-.32,0h-.05c-.07,0-.08,0-.15,0l0,.13-.11,0a.78.78,0,0,1,0-.09.14.14,0,0,0,0-.07l0,0,0,0-.16,0h-.05l0,0c0,.07,0,.11-.07.15a.45.45,0,0,0,0-.08c.09-.27.09-.27,0-.33l-.07,0-.05-.14-.13-.13h-.42c-.09,0-.13.08-.2.11l-.05,0c-.27.07-.31,0-.43-.1h-.19s0,0,0,0-.13,0-.15-.09l0,0c-.09.08-.09.08-.12.09s-.05-.06-.06-.09l0-.06s0,0-.15,0l0,.07h0a.19.19,0,0,0-.12,0c0,.15,0,.15,0,.18s-.14-.06-.22,0L17,8.94l-.07,0s0-.05-.07-.06-.18,0-.26,0a.13.13,0,0,1,0,.12.14.14,0,0,0-.1.1c0,.1.1.14.11.24-.17,0-.12-.21-.22-.27a.47.47,0,0,1,.06-.19l0,0-.06,0c-.07.05-.08.06,0,.15l-.17.09a.4.4,0,0,1-.23.22.67.67,0,0,1,.07.17c0,.05,0,.05-.09.08a.31.31,0,0,0,0,.15c-.08.12-.07.18-.06.21h.07c0,.11.23.18.14.32s.05.17,0,.22l-.08,0,.06.08-.06.08,0,.05c-.07,0-.1.08,0,.2a.26.26,0,0,0-.1.07c0,.06.05.15.1.2h0a.23.23,0,0,1,.11,0l0,.07s-.07,0-.09.09,0,0,0,.14,0,.06.1.1v0c.12.23.45.09.58.31l0,0c.68.4.68.4.73.38a.91.91,0,0,1,.53.09l.07,0,.09.21,0,.08h0v0l0,0v0l0,.07h0l0,0,0,0h0a.07.07,0,0,1,0,.05.15.15,0,0,0,.05.06v.05c0,.08,0,.15,0,.23a2,2,0,0,1,0,.3v0c.16.23.19.27.12.43l0,0v0h0c0,.06,0,.12,0,.18s.1.11.1.22l0,0,0,0,0,0c0,.08,0,.08,0,.1h0l.05,0,0-.12.06,0s0,0,0,.06l0,0,0,.07,0,.14-.05,0,0,0s0,0,0,0,0,0,0,0l.05.06h-.09s0,0,0,.06l0,0h.07a.06.06,0,0,1,0,0h0l0,0c-.06,0-.06,0-.08.07l0,0h0v0l.06,0v0h0l0,0h0a.58.58,0,0,0,.14.05h.06l.07,0h0l.09,0,0,0-.07,0h0l0-.06h0l0-.06h0s0,0,0-.06l0,0v0l.11-.19h-.07l-.09,0v0l.05-.06.08,0a.32.32,0,0,1,0-.1.25.25,0,0,0,0-.11c.07,0,.07,0,.08-.07l0,0h0a.07.07,0,0,1-.05,0l0-.06v0l.07,0h0s.07,0,.09-.07v0l0,0,0-.07v0l.1-.05,0,0L19.7,14l.11,0,.13-.23v-.1h0a.13.13,0,0,0,0-.05l-.11,0,0,0,.08,0c.29-.08.29-.08.35-.23l.19-.41a.17.17,0,0,0,0,.07s.27-.45.2-.57-.07-.13.18-.47l.09-.05s0,0,.09-.13a1.49,1.49,0,0,0,.24-.14.12.12,0,0,1,0-.07s0,0,.15-.47c0,0,0,0,0-.25v-.05a.65.65,0,0,0,0-.18.42.42,0,0,1,0-.06v0a.23.23,0,0,0,0-.07.29.29,0,0,1,0-.18s.14-.29.17-.38l.1-.33a.31.31,0,0,0,0-.16C21.56,9,21.52,9,21.47,9Z" style="fill:#653097"/><path d="M13.61,9.89l.11-.05,0,0h.08l.12.07.16,0,0-.07h.1c.38.22.38.22.4.3l.07,0,0-.06h.1c.23.07.23.07.3,0h.38l-.06-.1,0-.09.19-.07.05.06.06,0v-.1l-.1,0-.2.08-.13.06-.19.07-.12,0-.18-.07,0-.11-.06-.13,0-.19-.06-.11-.1-.06h-.15l-.17.09-.14,0L14,9.48l-.12,0,.06-.11,0,0,0-.07V9l-.07-.14.06-.09,0-.1-.08,0-.19.1-.12.08v.44l-.09.06-.13.11L13,9.51l-.11-.06-.16,0-.09-.09-.16-.11L12.36,9l-.09-.17V8.67l0-.17-.12-.14.05-.2.09-.05L12.32,8l.06-.14.14,0h.11l.06-.07.1.06.11,0,.09,0,0-.06V7.53l.13-.07.1-.06.18-.06.11.06.06,0,0-.07.05,0,.12,0,.12.07.05.11.07,0L14,7.6l.08,0,.07.07h.09l0,.09h.08V7.59l-.09-.1-.12-.15L14,7.22,13.92,7s0-.09,0-.13V6.68l.1-.09.08-.17.09-.14.09-.1V6.09l.06-.1-.13-.1-.09,0V5.76l-.08,0,.07-.09.12.07V5.47l0-.09,0-.21.17-.08L14.48,5l.12-.07-.07,0-.08-.15,0-.15.1,0V4.43l.13,0,.08-.12,0-.12A.83.83,0,0,1,15.13,4l0,.06L15,4.16l-.06.1a.7.7,0,0,0,.06.09H15l.05-.09,0-.07.09-.07L15.28,4l.1-.07,0-.14h0l-.1,0v.08l-.13.07H15l-.16,0-.14-.12,0-.09-.26,0-.08.08-.13.17-.09.24-.09.16V4.18l0-.13,0-.07-.15,0,.17-.07v-.1l0-.12.11,0v0a8.11,8.11,0,0,0-.86,0c-.21,0-.43,0-.64,0,0,0,0,.09,0,.14L13,3.8v.08L13,4l-.12.08L12.75,4l-.13-.07,0-.1-.07-.12V3.61l-.22,0-.08,0h-.07l-.15,0h0A9.65,9.65,0,0,0,8.24,5h0l.06,0,0,.08,0,0h0v.09l0,.09v.21h.07v.12l.06.09v.08l.07,0,.07,0h.07V6L8.8,6l.06.06,0,.15v.13l0-.07-.06-.09V6.15l-.07,0h0V6L8.61,6l0,0H8.5L8.45,6l0,.08,0,0,.05.06.11.08,0,.12,0,.14v.32c0,.06,0,.13,0,.2l0,.06s0,.09,0,.13l.06.12v.14l0,.1.05.08,0,.14L9,7.87l.08.06.08.17.08.06,0,.09.08.09.09,0,.09,0,.11,0,.1.07,0,.11.07.1.1.18L10,8.9l.11.07,0,.06,0,.08.07.06.11.05.13,0,.1.07,0,.08,0,.05h.1l.11,0,.08.05,0,.08,0-.05,0-.09-.07-.09-.09,0,0-.08-.12,0-.07-.11-.08-.1L10.38,9l-.05-.1h-.09l-.08-.12L10,8.7,10,8.55l.07,0h.1l.08.07,0,.12.15.14.15.09.13.06.11.07,0,.11.13,0,.12.08.1.08.18.1.11.12.09,0,0,.08,0,.09.19.06.16.06h.17l.19,0h.21l.24,0,.18,0,.1,0V9.82l.1-.06h.16l.2.06Z" style="fill:#653097"/><path d="M15.27,8.48h-.08L15,8.55l.05,0h0s0,0,0,0a.16.16,0,0,1,.09,0s0,0,0,0l0,0,.05,0s0,0,0-.07h0s0,0,0,0S15.29,8.48,15.27,8.48Z" style="fill:#653097"/><path d="M16.7,7.7l-.15.1-.06,0s-.06,0-.09,0h0s0,.05,0,.07l-.09,0s-.07,0-.11,0-.1,0-.14,0l-.2.08-.1.06c0,.06.05.11.07.17a.47.47,0,0,0,.16,0l.06,0c.07,0,.07-.12.14-.15a.38.38,0,0,0,.1,0l.09,0,.2-.12s0,0,0,0l.15,0,.06,0,0,0h0s0,0-.07,0S16.72,7.72,16.7,7.7Z" style="fill:#653097"/><path d="M15.17,8l-.06,0c-.06,0-.11.08-.18.08s-.08,0-.12,0h-.2c-.08,0-.08,0-.1,0a.06.06,0,0,0-.06,0l-.13.07-.05,0s0,0-.07,0l-.12.05c-.1,0-.1,0-.11.06s.18.22.29.08a.53.53,0,0,1,.06-.1l.1,0s.13,0,.17,0l0,0,.15,0s.05,0,.08,0a.25.25,0,0,0,.19,0l.42-.2A.6.6,0,0,0,15.17,8Z" style="fill:#653097"/><path d="M21.23,15.16h.09v0l0,0v.1l0,.06,0,.07-.05.2-.14.23,0,.13v.09h0l0,0h0v0h0v0l0,0v.09l0,.05v.09l-.05.12,0,.07v.17l0,.07v0h0v0l0,0,0,.08,0,0h0l0,0,0,.07.05.07,0,.09,0,0,.05.07v.19l0,.09V18l0,.11-.09.19,0,.11v.2l-.07.12L21,18.8h-.07l0,0-.07-.05,0,0v0l0,0v0h0l-.06,0h0l-.06.05h0l0,0h-.06l0,.05,0,0,0,0h0l0,0,0,0h0l0,0-.05,0-.08,0-.08,0-.15-.09h-.14l-.07,0-.06,0,0,0,0,.09,0,0h0l-.09,0,0,0v0l0,0,0,0-.07,0H19.1l-.07,0L19,18.65l0-.08,0-.07h0l0-.12v-.09h0l0,0-.07.06,0,0-.08,0-.06,0-.07,0,0,.06,0,.05-.06,0-.05,0h0l-.08,0h0v0l0,0,0,0h0L18,18.59l-.15-.07,0,0h0l0,0,0,0,0,0h0l-.07,0-.13-.07-.06,0h-.09v-.06h-.1l-.08,0-.05,0h-.2l-.15-.09-.07,0-.07,0h-.06l0,0-.15.13-.05,0h-.05v-.06l0,0h-.06L16,18.15l0,0L16,18l0-.18,0-.08,0,0-.17-.09h0l-.18.07-.09,0-.08,0,0,0,0,0h0l0,0,0,0h0l0,0-.08,0h0l-.2-.06-.07-.06v-.16l-.09,0h-.05l-.12,0h-.06v-.07l0,0H14.4l-.05,0,0-.05v0l0-.05,0,0-.11,0-.05,0h0l0,0H14l0,0h0l-.26-.07,0,0v-.06l0-.05,0-.06,0-.05v-.19l0-.09,0-.09-.05-.08-.07-.05-.62-.11-.05,0,0-.06,0-.05,0,0h-.09l0-.06,0,0-.05,0h0l0,0v0h0l-.05,0-.11.14,0,0h-.38l0,0,.06.07v.07h0l0,0h0l-.1,0-.3-.16-.16-.06-.24,0H11l-.06,0v.08l0,0v.06l-.05.07,0,0,0,0h0l-.05,0,0,0v0l0-.05,0,0-.1-.09-.08,0h-.27l-.14,0-.1-.06-.05,0H9.57L9.52,16l0-.09,0-.19,0-.09,0-.06h0l-.05,0-.27.07-.19,0-.08,0-.12-.12-.17-.09-.26-.21-.09,0,0,0,0,0,0,0H8l0,0H7.88l-.06,0-.09.1-.05,0H7.62l-.06,0L7.5,15.1,7.39,15l-.09-.1,0,0,0,0-.11,0,0,0h0l0-.05,0,0-.19-.1,0,0v-.08l0,0,0-.05,0,0,0,0h0l0,0v0l0,0H6.4v0h0l0,0v0l0,0,0-.06-.12-.14,0-.07,0-.15,0-.06,0,0-.22,0-.1,0v-.09H5.55l0,0v-.07l0,0H5.32l0,0-.09-.08,0,0-.07,0h0l0,0,0-.09,0,0H4.85l0,0v-.07H4.71l0,0,0,0v.05l0,.15v0l0,0-.1-.11,0,0H4.3l0,0-.06-.12H4.14v0l0,0,0,0,0,0H4l0,0,0,0-.08-.1-.07,0h0l0,0,0-.1v-.14l0,0,0,0,0,0,0,0,0,0h0v-.08l0-.11,0-.09.07,0h.13l0,0v0l0-.11v0h0l0,0h0l0-.17v-.1H4.14v0l0-.1,0-.08,0,0v0l0,0,.07,0v-.05l0,0h0l0,0h0l0,0,0,0,0,0h0v0h0l.05,0,0-.06v-.05l0-.07,0-.06,0-.07v-.06l0-.07.06,0,.12,0,0,0,.11-.14,0-.08,0-.09,0,0,0,0H5l0,0,0-.06.08,0,0,0,.07-.11,0,0,.13-.1,0-.07,0-.06,0,0,0-.05,0,0,0,0,0,0h0l.14-.05h0l0,0,0,0,0,.05,0,.08.05.09,0,0,0,.11h0l0,0h.11l.1,0h.05l0,0V9.72l0,0,0,0h0V9.6h0l0,0v0l0,0h.1l0,0,0,0,0,0V9.33l0-.05V9.05l0,0V8.9h.05l0,0L6.77,9l0,0h.08l0-.1v0H7v0l0,0h.09l.27.12H7.5l0,0h0l.09,0h.12l0,0,0,0h.06l0,0h.2v0l0,.15v.06l0,.05,0,0,.06,0,0,0v0l0,.09v0l0,0,0,.05,0,0h.12l.1.06h.14v0l0,0,0,0h.1l0,0,0,0,0,0,0,0,0,0,.1,0,0,0,.17.21,0,0h.09l0,0v.07l0,0,.13.11,0,.06,0,0,0,0h.05v0l0,0,.05,0,0,0,0,0h0l0,0,0,0h.09l.13.1,0,0,0,.06,0,0h0v-.09h.17l0,0h0v0h0l0,0h0l.05.05v.09h0v0l0,.05.14,0,.06.06v.12l.07,0v.09l0,0h0l0,0,0,.07,0,0,.06,0,0,0,0,0,0,.1v.07l0,0,0,0h.06l0,0,0,0h.12l0,0h0l0,0v-.09l0,0,.05,0h.16l.1,0,.05,0h0v0h0l.06,0h.12v.06l0,0h.05l0,0,0,0h0l0,0h0l0,0v.09h.1v.07l0,0,0,0v0l.05.05v.12l.05,0h0l0,0,0,.21,0,.06,0,0,.11.07.15,0h0l0,0,0,.06,0,0,0,0,0,.11,0,.05.05,0h.09l0,0,0,0,.12,0h0l0,.05h0l0,0h0l0,0,0,.11,0,0h.1l0,0,.06.07,0,0h.28l0,0,0-.06h0l.06,0h0v0l0-.05v0h.06l0,0,.08.05.1,0,0,0,0,.12v0h0l0,0v0h0v.05l0,0,0,0,0,0,0,.14v.19l0,0h.06l0,0h0l.07.07,0,0h.11l.06,0h.05l0,0,0,0h.07l.05-.06,0,0h.07l.06,0h.15l0,0,.05,0,0,0h0l.06-.09,0,0,.05,0h0V14h0v.16l0,.07,0,0,.05,0,.06,0,.09,0,.05,0,0,0v.08l0,.05v.08l0,.06,0,0,.08.07,0,0V15l0,.06,0,0h.17l0,0,.07-.07h0V15h0v-.09l0,0h0l0,0h0v-.08h0v0l0,0v0l.19-.2h0l0,.05v.11l0,0v0l0,0v.07l0,0,0,0h.13l0,0,.05.07h.12l.07.06,0,0h0l.08,0,.05,0,0,0v-.17l0,0,0,0v-.11l0,0h0l0,0,0,0,0,0h0l.05,0,0,0h0l0,0,0,0,0,0v.1l0,0,.06,0h.15l.07.05h0v.06l0,0,.05,0h.19l.06,0,.07.07.11.16.09,0h.06l.11,0,.12,0,.05,0,.05-.05.06,0,.05,0v0l0,0v0h0l.2-.06.08,0H20v0h0l.07,0h.13l0,0h.06l.07,0,.05,0,0-.06,0-.07,0,0h0l0,0h.2l0,0H21l.05,0h.08l.09.06Z" style="fill:none;stroke:#fff;stroke-linecap:round;stroke-linejoin:round;stroke-width:0.17672881249921665px"/><polygon points="21.98 11.1 22.17 11.48 22.6 11.54 22.29 11.84 22.36 12.26 21.98 12.06 21.61 12.26 21.68 11.84 21.37 11.54 21.8 11.48 21.98 11.1" style="fill:#fff"/><polygon points="20.28 8.99 20.49 9.42 20.96 9.48 20.62 9.81 20.7 10.28 20.28 10.06 19.87 10.28 19.95 9.81 19.61 9.48 20.07 9.42 20.28 8.99" style="fill:#fff"/><polygon points="17.94 6.89 18.17 7.35 18.68 7.43 18.31 7.79 18.4 8.3 17.94 8.06 17.48 8.3 17.57 7.79 17.2 7.43 17.71 7.35 17.94 6.89" style="fill:#fff"/><polygon points="14.62 5.07 14.87 5.58 15.44 5.67 15.03 6.06 15.13 6.62 14.62 6.36 14.12 6.62 14.21 6.06 13.81 5.67 14.37 5.58 14.62 5.07" style="fill:#fff"/><polygon points="10.83 4.02 11.11 4.58 11.73 4.67 11.28 5.11 11.39 5.72 10.83 5.43 10.28 5.72 10.39 5.11 9.94 4.67 10.56 4.58 10.83 4.02" style="fill:#fff"/><path d="M11.34,16.19,9.87,16.1l0-.08c.07,0,.13-.11.2-.12l.63-.12v0l-.19,0,.09-1.31.09-1.06a.73.73,0,0,1,.55-.65.66.66,0,0,0,.55-.65c0-.35.05-.69.06-1a.33.33,0,0,0-.35-.38,3.48,3.48,0,0,1-1.37-.46A2.6,2.6,0,0,0,9,9.82a.28.28,0,0,1-.18-.09,2,2,0,0,1,1.33-.1,2.44,2.44,0,0,0,1.44.21,8.36,8.36,0,0,0,.8-.27.42.42,0,0,0,.07-.28c0-.13-.19-.32-.17-.44.08-.43.16-.6.57-.76a.56.56,0,0,1,.72.24.75.75,0,0,1-.11,1c-.09.06-.14.3,0,.34a2.18,2.18,0,0,1,1.44,1.35,5.25,5.25,0,0,1,.45,2.47c0,.31-.13.4-.47.37a3.91,3.91,0,0,0-1-3,3.08,3.08,0,0,0-.35,1.35c0,.28.2.55.24.84s0,.74.09,1.11.16.73.24,1.1.18.77.25,1.16c0,.12,0,.59-.2.6s-.34-.3-.42-.54c-.12-.43-.29-.85-.43-1.27s-.23-.82-.37-1.23a1,1,0,0,0-.81-.65.44.44,0,0,0-.55.42c0,.1,0,.2,0,.31Z" style="fill:#fdfdfd"/><polygon points="22.59 21.38 22.05 21.48 21.82 21.99 21.55 21.5 21 21.43 21.38 21.03 21.27 20.48 21.77 20.73 22.26 20.45 22.18 21 22.59 21.38" style="fill:#e53e3e"/></svg>