<svg xmlns="http://www.w3.org/2000/svg" height="24px" viewBox="0 -960 960 960" width="24px">
  <!-- <defs>
    <linearGradient id="svggrad" x1="0%" x2="100%" y1="0%" y2="0%">
      <stop offset="0%" stop-color="#a3ee17" />
      <stop offset="30%" stop-color="#7CE21E" />
      <stop offset="50%" stop-color="#56D525" />
      <stop offset="80%" stop-color="##2FC92B" />
      <stop offset="100%" stop-color="#08bc32" />
    </linearGradient>
  </defs> -->
  <path d="M480-80q-83 0-156-31.5T197-197q-54-54-85.5-127T80-480q0-83 31.5-156T197-763q54-54 127-85.5T480-880q83 0 156 31.5T763-763q54 54 85.5 127T880-480q0 83-31.5 156T763-197q-54 54-127 85.5T480-80Zm0-80q134 0 227-93t93-227q0-134-93-227t-227-93q-134 0-227 93t-93 227q0 134 93 227t227 93Zm0-80q-100 0-170-70t-70-170q0-100 70-170t170-70q100 0 170 70t70 170q0 100-70 170t-170 70Zm0-80q66 0 113-47t47-113q0-66-47-113t-113-47q-66 0-113 47t-47 113q0 66 47 113t113 47Zm0-80q-33 0-56.5-23.5T400-480q0-33 23.5-56.5T480-560q33 0 56.5 23.5T560-480q0 33-23.5 56.5T480-400Z"/></svg>