<svg xmlns="http://www.w3.org/2000/svg" viewBox="0 0 71.51 75.62"><title>Asset 19</title><g id="2e435b3f-993f-4c4a-88a3-083fed8ddd75" data-name="Layer 2"><g id="11c37cdb-f5b4-4843-b574-e5ab9ce4e6d5" data-name="icons"><path d="M36,47.35a12,12,0,1,1,12-12A12,12,0,0,1,36,47.35Zm0-22a10,10,0,1,0,10,10A10,10,0,0,0,36,25.35ZM18.37,34l-9-.2,0,2,9,.2ZM25.1,47.79l-1.32-1.5-6.67,5.87,1.32,1.5ZM37.67,60.64h0V60.4A2.18,2.18,0,0,1,37.67,60.64Zm16.79-8.37L48,45.6,46.58,47,53,53.66Zm6.35-17.12-9-.89-.2,2,9,.89Zm-6.1-17.6L53.41,16,46.58,21.9l1.31,1.52ZM36.46,8.3l-2-.1-.46,9,2,.1ZM23.36,21.67l-6.19-6.54-1.45,1.38,6.19,6.54ZM71.51,35.75a35.76,35.76,0,1,0-47,34,12.94,12.94,0,0,0,4.07.73,12.09,12.09,0,0,0,5.24-1.31c1.44-.68,3.39-1.87,3.68-4.39.1-.88.15-3.13.16-4.09a2.18,2.18,0,0,0,0-.24V51.63h-2v9c0,1.13-.07,3.14-.16,3.86-.13,1.22-.87,2-2.54,2.81a9.42,9.42,0,0,1-7.83.49,33.43,33.43,0,0,1-8.6-4.29,33.76,33.76,0,1,1,45.19-6.22c-3.3-2.06-8.89-.51-13.36,3.89l-.44.44,1.79,1.79-6.06,5.21L45,70.14l6.18-5.31,3.91,3.91-6.23,5.37,1.3,1.51,6.35-5.46,2.62,2.62.44-.45c4.54-4.62,6.05-10.42,3.67-13.68A35.65,35.65,0,0,0,71.51,35.75ZM59.09,71,49.7,61.63c4.29-4,9.64-5.2,12.11-2.73S63.05,66.72,59.09,71ZM37.68,60.21v.19c0-.11,0-.17,0-.19Z"/></g></g></svg>